***** Sex.And.The.City.2.2010.DVDRiP.XviD.OPTIONAL-MULTISUB-Zen_Bud ****

Format                           : AVI
File size                        : 1.48 GiB
Duration                         : 2h 26mn
Overall bit rate                 : 1 443 Kbps

Video

Format                           : MPEG-4 Visual
Codec ID/Hint                    : XviD
Duration                         : 2h 26mn
Bit rate                         : 1 302 Kbps
Width                            : 720 pixels
Height                           : 480 pixels
Display aspect ratio             : 16:9
Stream size                      : 1.33 GiB (90%)
Writing library                  : XviD 1.1.2 (UTC 2006-11-01)

Audio

Format                           : MPEG Audio
Codec ID/Hint                    : MP3
Duration                         : 2h 26mn
Bit rate                         : 128 Kbps
Channel(s)                       : 2 channels
Sampling rate                    : 48.0 KHz
Stream size                      : 134 MiB (9%)
Writing library                  : LAME3.98
Language                         : English

Text #1
Language                         : English

Text #2
Language                         : Spanish

Text #3
Language                         : Chinese

Text #4
Language                         : Danish

Text #5
Language                         : Dutch

Text #6
Language                         : French

Text #7
Language                         : Portuguese

Text #8
Language                         : Croatian

Text #9
Language                         : Swedish


While wrestling with the pressures of life, love, and work in Manhattan, Carrie, Miranda, and Charlotte join Samantha for a trip to Abu Dhabi (United Arab Emirates), where Samantha's ex is filming a new movie. 